# xmcd CD database file
# Copyright (C) 1995-1998 Ti Kan
#
# Track frame offsets:
#	150
#	13860
#	27735
#	41695
#	54370
#	69095
#	83912
#	97382
#	111007
#	121462
#	134840
#	149012
#	163065
#	176920
#
# Disc length: 2506 seconds
#
# Revision: 2
# Processed by: cddbd v1.4PL0 Copyright (c) Steve Scherf et al.
# Submitted via: CDex 1.30Release
#
DISCID=d609c80e
DTITLE=Billie Holiday - Georgia On My Mind
DYEAR=1997
DGENRE=Blues
TTITLE0=What a Little Moonlight Can Do
TTITLE1=Miss Brown to You
TTITLE2=Twenty Four Hours a Day
TTITLE3=Yankee Doodle Never Went to Town
TTITLE4=If You Were Mine
TTITLE5=These `n' That `n' Those
TTITLE6=Spreadin' Rhythm Around
TTITLE7=Let's Call a Heart a Heart
TTITLE8=Please Keep Me in Your Dreams
TTITLE9=I Wish I Had You
TTITLE10=More Than You Know
TTITLE11=Night and Day
TTITLE12=Georgia on My Mind
TTITLE13=Romance in the Dark
EXTD=YEAR: 1997 ID3G:   0
EXTT0=
EXTT1=
EXTT2=
EXTT3=
EXTT4=
EXTT5=
EXTT6=
EXTT7=
EXTT8=
EXTT9=
EXTT10=
EXTT11=
EXTT12=
EXTT13=
PLAYORDER=
